<svg width="312" height="548" viewBox="0 0 312 548" fill="none" xmlns="http://www.w3.org/2000/svg">
<path d="M197.501 55.9357L171.956 70.694L200.353 71.4835L197.501 55.9357Z" fill="#9FCD00"/>
<path d="M171.956 70.6941L194.164 179.407L200.353 71.4836L171.956 70.6941Z" fill="#B5DC0F"/>
<path d="M0 200.118L117.409 225.261L171.956 70.6941L0 200.118Z" fill="#DFF070"/>
<path d="M117.409 225.261L8.79811 326.383L185.609 348.368L117.409 225.261Z" fill="#E1F489"/>
<path d="M208.302 48.4655L227.051 39.0518L239.368 17.5521L208.302 48.4655Z" fill="#A1D004"/>
<path d="M171.956 70.6941L117.409 225.261L194.164 179.407L171.956 70.6941Z" fill="#A8D307"/>
<path d="M117.409 225.261L189.31 199.146L194.164 179.407L117.409 225.261Z" fill="#A2E000"/>
<path d="M185.609 348.368L113.343 440.076L197.562 438.315L185.609 348.368Z" fill="#047736"/>
<path d="M189.31 199.146L211.032 339.198L260.422 230.059L189.31 199.146Z" fill="#22AD2C"/>
<path d="M197.501 55.9358L200.353 71.4836L208.301 48.4655L197.501 55.9358Z" fill="#9ECD01"/>
<path d="M117.409 225.261L185.609 348.368L211.032 339.198L117.409 225.261Z" fill="#0A9248"/>
<path d="M189.31 199.146L117.409 225.261L211.032 339.198L189.31 199.146Z" fill="#82B300"/>
<path d="M227.05 39.0518L255.932 84.3591L272.497 22.4715L227.05 39.0518Z" fill="#87C301"/>
<path d="M239.368 17.5521L227.05 39.0518L272.497 22.4715L239.368 17.5521Z" fill="#98CB04"/>
<path d="M185.609 348.368L197.562 438.315L225.352 427.14L185.609 348.368Z" fill="#0C9954"/>
<path d="M185.609 348.368L225.352 427.14L254.537 399.567L185.609 348.368Z" fill="#0C8852"/>
<path d="M197.562 438.315L200.292 496.801L240.824 460.726L197.562 438.315Z" fill="#8FCEAF"/>
<path d="M225.352 427.14L197.562 438.315L240.824 460.726L225.352 427.14Z" fill="#36A771"/>
<path d="M211.032 339.198L185.609 348.368L254.537 399.567L211.032 339.198Z" fill="#01854B"/>
<path d="M200.353 71.4835L194.164 179.407L255.932 84.359L200.353 71.4835Z" fill="#A1D800"/>
<path d="M208.301 48.4655L200.353 71.4836L255.932 84.3591L208.301 48.4655Z" fill="#8EC301"/>
<path d="M227.051 39.0517L208.302 48.4654L255.932 84.359L227.051 39.0517Z" fill="#8BC500"/>
<path d="M194.164 179.407L189.31 199.146L260.422 230.059L194.164 179.407Z" fill="#A3E801"/>
<path d="M211.032 339.198L254.537 399.567L268.978 391.611L211.032 339.198Z" fill="#05894F"/>
<path d="M239.368 17.5521L272.497 22.4715L285.421 8.98865L239.368 17.5521Z" fill="#93C700"/>
<path d="M254.537 399.567L240.824 460.726L295.554 464.916L254.537 399.567Z" fill="#BEEBD7"/>
<path d="M268.978 391.611L254.537 399.567L295.554 464.916L268.978 391.611Z" fill="#159059"/>
<path d="M240.824 460.726L242.523 514.232L295.554 464.916L240.824 460.726Z" fill="#39A574"/>
<path d="M255.932 84.3591L334.872 129.909L353.985 48.7691L255.932 84.3591Z" fill="#34BE22"/>
<path d="M260.422 230.059L211.032 339.198L327.227 356.324L260.422 230.059Z" fill="#28B477"/>
<path d="M211.032 339.198L268.978 391.611L327.227 356.325L211.032 339.198Z" fill="#1AA466"/>
<path d="M255.932 84.3591L334.629 146.611L334.872 129.909L255.932 84.3591Z" fill="#56C938"/>
<path d="M327.227 356.324L268.978 391.611L351.437 408.555L327.227 356.324Z" fill="#86D0AB"/>
<path d="M255.932 84.3591L194.164 179.407L334.629 146.611L255.932 84.3591Z" fill="#A8E605"/>
<path d="M194.164 179.407L260.422 230.059L334.629 146.611L194.164 179.407Z" fill="#20AB2C"/>
<path d="M272.497 22.4715L255.932 84.3591L353.985 48.7692L272.497 22.4715Z" fill="#9FCF00"/>
<path d="M285.421 8.98865L272.497 22.4715L353.985 48.7692L285.421 8.98865Z" fill="#8FC608"/>
<path d="M268.978 391.611L295.554 464.916L351.437 408.555L268.978 391.611Z" fill="#1B965F"/>
<path d="M260.422 230.059L327.227 356.324L369.7 297.534L260.422 230.059Z" fill="#D1E83E"/>
<path d="M295.554 464.916L242.584 548L385.901 463.945L295.554 464.916Z" fill="#1BA164"/>
<path d="M285.421 8.98858L363.026 21.0139L403.254 0L285.421 8.98858Z" fill="#83C500"/>
<path d="M351.437 408.555L295.554 464.916L385.901 463.944L351.437 408.555Z" fill="#37AE76"/>
</svg>
