<svg width="201" height="78" viewBox="0 0 201 78" fill="none" xmlns="http://www.w3.org/2000/svg">
<path d="M27.6821 62.531V47.5205C27.6821 42.5172 27.1776 40.0912 25.6641 37.918C23.848 35.2899 20.821 33.8747 16.9364 33.8747C13.7581 33.8747 11.5383 34.835 9.06625 37.2104V34.5318H2.86096V62.531H9.57074V49.34C9.57074 45.6001 9.82298 43.9828 10.6806 42.6182C11.7401 40.9504 13.5058 40.0406 15.6247 40.0406C18.9544 40.0406 20.9724 41.3547 20.9724 48.8346V62.531H27.6821ZM61.6148 48.7335C61.6148 40.3944 55.1068 33.8747 46.6818 33.8747C38.5593 33.8747 31.9 40.4956 31.9 48.5314C31.9 56.6178 38.5593 63.1879 46.7322 63.1879C54.8546 63.1879 61.6148 56.6178 61.6148 48.7335ZM54.8546 48.5314C54.8546 53.2316 51.2222 57.0222 46.7827 57.0222C42.2423 57.0222 38.6602 53.2316 38.6602 48.4303C38.6602 43.8311 42.3431 40.0406 46.7322 40.0406C51.2222 40.0406 54.8546 43.8817 54.8546 48.5314ZM89.5698 34.5318H82.0024L75.6458 53.08L69.1882 34.5318H61.7217L72.972 62.531H78.3195L89.5698 34.5318ZM119.647 62.531V34.5318H113.492V38.2717C111.171 35.1888 108.397 33.8747 104.361 33.8747C96.0868 33.8747 90.1338 40.0912 90.1338 48.6325C90.1338 57.0727 96.0363 63.1879 104.209 63.1879C108.144 63.1879 110.818 61.9245 113.492 58.8921V62.531H119.647ZM113.29 48.7335C113.29 53.3832 110.263 57.0222 105.168 57.0222C100.274 57.0222 96.894 53.6864 96.894 48.7841C96.894 43.6796 100.274 40.0406 105.067 40.0406C109.86 40.0406 113.29 43.629 113.29 48.7335ZM131.359 62.531V25.1818H124.649V62.531H131.359ZM165.07 62.531V34.5318H158.916V38.2717C156.596 35.1888 153.821 33.8747 149.784 33.8747C141.511 33.8747 135.557 40.0912 135.557 48.6325C135.557 57.0727 141.46 63.1879 149.633 63.1879C153.569 63.1879 156.242 61.9245 158.916 58.8921V62.531H165.07ZM158.714 48.7335C158.714 53.3832 155.687 57.0222 150.592 57.0222C145.699 57.0222 142.317 53.6864 142.317 48.7841C142.317 43.6796 145.699 40.0406 150.491 40.0406C155.284 40.0406 158.714 43.629 158.714 48.7335ZM199.536 48.3293C199.536 39.8891 193.482 33.521 185.461 33.521C181.828 33.521 179.357 34.5318 176.782 37.1093V25.1818H170.074V62.531H176.228V58.9426C179.105 62.0255 181.777 63.1879 185.915 63.1879C193.784 63.1879 199.536 56.7695 199.536 48.3293ZM192.776 48.3798C192.776 53.4843 189.446 57.0222 184.654 57.0222C179.81 57.0222 176.38 53.4338 176.38 48.3293C176.38 43.2752 179.81 39.6868 184.501 39.6868C189.295 39.6868 192.776 43.3763 192.776 48.3798Z" fill="#0070F3"/>
<path d="M153.501 31.7046H146.046V43.8202H153.501V31.7046Z" fill="white"/>
<mask id="mask0_2:21" style="mask-type:alpha" maskUnits="userSpaceOnUse" x="143" y="41" width="14" height="14">
<path d="M150.279 54.9593C153.892 54.9593 156.822 52.0252 156.822 48.4057C156.822 44.7864 153.892 41.8523 150.279 41.8523C146.667 41.8523 143.737 44.7864 143.737 48.4057C143.737 52.0252 146.667 54.9593 150.279 54.9593Z" fill="#C4C4C4"/>
</mask>
<g mask="url(#mask0_2:21)">
<path d="M139.982 53.8122C139.982 50.9851 142.609 48.8948 145.357 49.5354L146.395 49.7772C147.82 50.1091 149.317 49.8283 150.526 49.0027L150.661 48.911C152.213 47.8504 154.192 47.6404 155.932 48.3519L157.284 48.905C157.642 49.0517 158.04 49.0691 158.411 48.9544C159.486 48.6207 160.578 49.426 160.578 50.5538V53.9933C160.578 56.3184 158.696 58.2032 156.373 58.2032H144.364C141.944 58.2032 139.982 56.2372 139.982 53.8122Z" fill="#0070F3"/>
</g>
</svg>
